<svg width="40" height="40" viewBox="0 0 40 40" fill="none" xmlns="http://www.w3.org/2000/svg">
<path d="M20 0C31.0457 0 40 8.95431 40 20C40 31.0457 31.0457 40 20 40C8.95431 40 0 31.0457 0 20C0 8.95431 8.95431 0 20 0Z" fill="#0176D3" fill-opacity="0.04"/>
<path d="M20 0C31.0457 0 40 8.95431 40 20C40 31.0457 31.0457 40 20 40C8.95431 40 0 31.0457 0 20C0 8.95431 8.95431 0 20 0Z" stroke="#E5E7EB"/>
<path d="M30 28H10V12H30V28Z" stroke="#E5E7EB"/>
<g clip-path="url(#clip0_1_254)">
<path d="M20 12C20.5531 12 21 12.4469 21 13V15H24.75C25.9937 15 27 16.0062 27 17.25V25.75C27 26.9937 25.9937 28 24.75 28H15.25C14.0062 28 13 26.9937 13 25.75V17.25C13 16.0062 14.0062 15 15.25 15H19V13C19 12.4469 19.4469 12 20 12ZM16.5 24C16.225 24 16 24.225 16 24.5C16 24.775 16.225 25 16.5 25H17.5C17.775 25 18 24.775 18 24.5C18 24.225 17.775 24 17.5 24H16.5ZM19.5 24C19.225 24 19 24.225 19 24.5C19 24.775 19.225 25 19.5 25H20.5C20.775 25 21 24.775 21 24.5C21 24.225 20.775 24 20.5 24H19.5ZM22.5 24C22.225 24 22 24.225 22 24.5C22 24.775 22.225 25 22.5 25H23.5C23.775 25 24 24.775 24 24.5C24 24.225 23.775 24 23.5 24H22.5ZM18.25 20C18.25 19.6685 18.1183 19.3505 17.8839 19.1161C17.6495 18.8817 17.3315 18.75 17 18.75C16.6685 18.75 16.3505 18.8817 16.1161 19.1161C15.8817 19.3505 15.75 19.6685 15.75 20C15.75 20.3315 15.8817 20.6495 16.1161 20.8839C16.3505 21.1183 16.6685 21.25 17 21.25C17.3315 21.25 17.6495 21.1183 17.8839 20.8839C18.1183 20.6495 18.25 20.3315 18.25 20ZM23 21.25C23.3315 21.25 23.6495 21.1183 23.8839 20.8839C24.1183 20.6495 24.25 20.3315 24.25 20C24.25 19.6685 24.1183 19.3505 23.8839 19.1161C23.6495 18.8817 23.3315 18.75 23 18.75C22.6685 18.75 22.3505 18.8817 22.1161 19.1161C21.8817 19.3505 21.75 19.6685 21.75 20C21.75 20.3315 21.8817 20.6495 22.1161 20.8839C22.3505 21.1183 22.6685 21.25 23 21.25ZM11.5 19H12V25H11.5C10.6719 25 10 24.3281 10 23.5V20.5C10 19.6719 10.6719 19 11.5 19ZM28.5 19C29.3281 19 30 19.6719 30 20.5V23.5C30 24.3281 29.3281 25 28.5 25H28V19H28.5Z" fill="#0176D3"/>
</g>
<defs>
<clipPath id="clip0_1_254">
<path d="M10 12H30V28H10V12Z" fill="white"/>
</clipPath>
</defs>
</svg>
