<svg width="14" height="14" viewBox="0 0 14 14" fill="none" xmlns="http://www.w3.org/2000/svg">
<path d="M12.5996 0.925049C12.7639 0.925049 12.8659 0.973552 12.9463 1.05396C13.0265 1.13426 13.0751 1.23575 13.0752 1.39966C13.0752 1.52307 13.0476 1.61158 13 1.68188L12.9463 1.74634L7.69238 7.00024L8.0459 7.35376L12.9463 12.2532C13.0267 12.3335 13.0752 12.4357 13.0752 12.5999C13.0752 12.7641 13.0267 12.8661 12.9463 12.9465C12.8659 13.0269 12.7639 13.0754 12.5996 13.0754C12.4355 13.0754 12.3333 13.0269 12.2529 12.9465L7.35352 8.04614L7 7.69263L1.74609 12.9465C1.66571 13.0269 1.56362 13.0754 1.39941 13.0754C1.23551 13.0754 1.13402 13.0268 1.05371 12.9465C0.973308 12.8661 0.924805 12.7641 0.924805 12.5999C0.924833 12.4769 0.951665 12.3888 0.999023 12.3186L1.05371 12.2532L6.30664 7.00024L5.95312 6.64673L1.05371 1.74634C0.973309 1.66594 0.924805 1.56393 0.924805 1.39966C0.924881 1.23562 0.973373 1.13429 1.05371 1.05396C1.13405 0.973617 1.23537 0.925125 1.39941 0.925049C1.52267 0.925049 1.61138 0.951771 1.68164 0.999268L1.74609 1.05396L6.64648 5.95337L7 6.30688L12.2529 1.05396C12.3333 0.973585 12.4355 0.925087 12.5996 0.925049Z" fill="#032D60" stroke="black"/>
</svg>
