<svg width="12" height="7" viewBox="0 0 12 7" fill="none" xmlns="http://www.w3.org/2000/svg">
<path d="M11.0396 0.460025C10.8521 0.272758 10.5979 0.167572 10.3329 0.167572C10.0679 0.167572 9.81375 0.272758 9.62624 0.460025L5.99958 4.08669L2.37291 0.460025C2.18334 0.283384 1.93262 0.187221 1.67355 0.191792C1.41448 0.196363 1.1673 0.301312 0.984082 0.484529C0.800865 0.667746 0.695914 0.914927 0.691343 1.17399C0.686772 1.43306 0.782937 1.68379 0.959577 1.87336L5.29291 6.20669C5.48041 6.39396 5.73458 6.49915 5.99958 6.49915C6.26458 6.49915 6.51874 6.39396 6.70624 6.20669L11.0396 1.87336C11.2268 1.68586 11.332 1.43169 11.332 1.16669C11.332 0.901691 11.2268 0.647526 11.0396 0.460025Z" fill="#181818"/>
</svg>
