<svg width="14" height="13" viewBox="0 0 14 13" fill="none" xmlns="http://www.w3.org/2000/svg">
<path d="M12.25 1.9375C12.4906 1.9375 12.6875 2.13437 12.6875 2.375V11.1195L12.5508 10.9418L8.83203 6.1293C8.70898 5.96797 8.51484 5.875 8.3125 5.875C8.11016 5.875 7.91875 5.96797 7.79297 6.1293L5.52344 9.06602L4.68945 7.89844C4.56641 7.72617 4.36953 7.625 4.15625 7.625C3.94297 7.625 3.74609 7.72617 3.62305 7.90117L1.43555 10.9637L1.3125 11.1332V11.125V2.375C1.3125 2.13437 1.50937 1.9375 1.75 1.9375H12.25ZM1.75 0.625C0.784766 0.625 0 1.40977 0 2.375V11.125C0 12.0902 0.784766 12.875 1.75 12.875H12.25C13.2152 12.875 14 12.0902 14 11.125V2.375C14 1.40977 13.2152 0.625 12.25 0.625H1.75ZM3.9375 5.875C4.10986 5.875 4.28053 5.84105 4.43977 5.77509C4.59901 5.70913 4.7437 5.61245 4.86558 5.49058C4.98745 5.3687 5.08413 5.22401 5.15009 5.06477C5.21605 4.90553 5.25 4.73486 5.25 4.5625C5.25 4.39014 5.21605 4.21947 5.15009 4.06023C5.08413 3.90099 4.98745 3.7563 4.86558 3.63442C4.7437 3.51255 4.59901 3.41587 4.43977 3.34991C4.28053 3.28395 4.10986 3.25 3.9375 3.25C3.76514 3.25 3.59447 3.28395 3.43523 3.34991C3.27599 3.41587 3.1313 3.51255 3.00942 3.63442C2.88755 3.7563 2.79087 3.90099 2.72491 4.06023C2.65895 4.21947 2.625 4.39014 2.625 4.5625C2.625 4.73486 2.65895 4.90553 2.72491 5.06477C2.79087 5.22401 2.88755 5.3687 3.00942 5.49058C3.1313 5.61245 3.27599 5.70913 3.43523 5.77509C3.59447 5.84105 3.76514 5.875 3.9375 5.875Z" fill="#181818" fill-opacity="0.5"/>
</svg>
