<svg width="15" height="15" viewBox="0 0 15 15" fill="none" xmlns="http://www.w3.org/2000/svg">
<g clip-path="url(#clip0_1_1862)">
<path d="M13.4219 7.75C13.4219 6.24158 12.8227 4.79494 11.756 3.72833C10.6894 2.66172 9.24279 2.0625 7.73438 2.0625C6.22596 2.0625 4.77932 2.66172 3.71271 3.72833C2.64609 4.79494 2.04688 6.24158 2.04688 7.75C2.04688 9.25842 2.64609 10.7051 3.71271 11.7717C4.77932 12.8383 6.22596 13.4375 7.73438 13.4375C9.24279 13.4375 10.6894 12.8383 11.756 11.7717C12.8227 10.7051 13.4219 9.25842 13.4219 7.75ZM0.734375 7.75C0.734375 5.89348 1.47187 4.11301 2.78463 2.80025C4.09738 1.4875 5.87786 0.75 7.73438 0.75C9.59089 0.75 11.3714 1.4875 12.6841 2.80025C13.9969 4.11301 14.7344 5.89348 14.7344 7.75C14.7344 9.60652 13.9969 11.387 12.6841 12.6997C11.3714 14.0125 9.59089 14.75 7.73438 14.75C5.87786 14.75 4.09738 14.0125 2.78463 12.6997C1.47187 11.387 0.734375 9.60652 0.734375 7.75ZM5.59063 9.44805C6.00625 9.89648 6.71719 10.375 7.73438 10.375C8.75156 10.375 9.4625 9.89648 9.87813 9.44805C10.1242 9.18281 10.5398 9.16367 10.8051 9.40977C11.0703 9.65586 11.0895 10.0715 10.8434 10.3367C10.2418 10.9875 9.20273 11.6875 7.73711 11.6875C6.27148 11.6875 5.22969 10.9902 4.63086 10.3367C4.38477 10.0715 4.40117 9.65586 4.66914 9.40977C4.93711 9.16367 5.35 9.18008 5.59609 9.44805H5.59063ZM4.68281 6.4375C4.68281 6.20544 4.775 5.98288 4.93909 5.81878C5.10319 5.65469 5.32575 5.5625 5.55781 5.5625C5.78988 5.5625 6.01244 5.65469 6.17653 5.81878C6.34063 5.98288 6.43281 6.20544 6.43281 6.4375C6.43281 6.66956 6.34063 6.89212 6.17653 7.05622C6.01244 7.22031 5.78988 7.3125 5.55781 7.3125C5.32575 7.3125 5.10319 7.22031 4.93909 7.05622C4.775 6.89212 4.68281 6.66956 4.68281 6.4375ZM9.93281 5.5625C10.1649 5.5625 10.3874 5.65469 10.5515 5.81878C10.7156 5.98288 10.8078 6.20544 10.8078 6.4375C10.8078 6.66956 10.7156 6.89212 10.5515 7.05622C10.3874 7.22031 10.1649 7.3125 9.93281 7.3125C9.70075 7.3125 9.47819 7.22031 9.31409 7.05622C9.15 6.89212 9.05781 6.66956 9.05781 6.4375C9.05781 6.20544 9.15 5.98288 9.31409 5.81878C9.47819 5.65469 9.70075 5.5625 9.93281 5.5625Z" fill="#181818" fill-opacity="0.5"/>
</g>
<defs>
<clipPath id="clip0_1_1862">
<path d="M0.734375 0.75H14.7344V14.75H0.734375V0.75Z" fill="white"/>
</clipPath>
</defs>
</svg>
