<svg width="18" height="15" viewBox="0 0 18 15" fill="none" xmlns="http://www.w3.org/2000/svg">
<g clip-path="url(#clip0_1_1865)">
<path d="M11.2097 0.782828C10.7448 0.648843 10.2608 0.919546 10.1269 1.38439L6.62685 13.6344C6.49287 14.0992 6.76357 14.5832 7.22842 14.7172C7.69326 14.8512 8.17725 14.5805 8.31123 14.1156L11.8112 1.86564C11.9452 1.4008 11.6745 0.916812 11.2097 0.782828ZM13.4136 4.06681C13.0718 4.40861 13.0718 4.96369 13.4136 5.30548L15.8554 7.75002L13.4108 10.1945C13.069 10.5363 13.069 11.0914 13.4108 11.4332C13.7526 11.775 14.3077 11.775 14.6495 11.4332L17.712 8.37072C18.0538 8.02892 18.0538 7.47384 17.712 7.13205L14.6495 4.06955C14.3077 3.72775 13.7526 3.72775 13.4108 4.06955L13.4136 4.06681ZM5.02725 4.06681C4.68545 3.72502 4.13037 3.72502 3.78857 4.06681L0.726074 7.12931C0.384277 7.47111 0.384277 8.02619 0.726074 8.36798L3.78857 11.4305C4.13037 11.7723 4.68545 11.7723 5.02725 11.4305C5.36904 11.0887 5.36904 10.5336 5.02725 10.1918L2.58271 7.75002L5.02725 5.30548C5.36904 4.96369 5.36904 4.40861 5.02725 4.06681Z" fill="#181818" fill-opacity="0.5"/>
</g>
<defs>
<clipPath id="clip0_1_1865">
<path d="M0.46875 0.75H17.9688V14.75H0.46875V0.75Z" fill="white"/>
</clipPath>
</defs>
</svg>
