<svg width="15" height="11" viewBox="0 0 15 11" fill="none" xmlns="http://www.w3.org/2000/svg">
<g clip-path="url(#clip0_1_1531)">
<g clip-path="url(#clip1_1_1531)">
<path d="M14.1898 5.87978C14.2899 5.63632 14.2899 5.36324 14.1898 5.11978C14.1487 5.02391 14.0912 4.93594 14.0198 4.85978C14.0231 4.83656 14.0231 4.81299 14.0198 4.78978L10.0198 0.789777C9.92661 0.693912 9.8154 0.617351 9.69257 0.564464C9.56974 0.511577 9.4377 0.483401 9.30399 0.481544C9.17027 0.479686 9.0375 0.504185 8.91325 0.55364C8.789 0.603095 8.67571 0.676539 8.57984 0.769777C8.38624 0.958081 8.27536 1.21558 8.27161 1.48564C8.26975 1.61935 8.29425 1.75212 8.34371 1.87637C8.39316 2.00062 8.46661 2.11391 8.55984 2.20978L10.8598 4.49978H1.33984C1.07463 4.49978 0.820273 4.60513 0.632737 4.79267C0.445201 4.98021 0.339844 5.23456 0.339844 5.49978C0.339844 5.76499 0.445201 6.01935 0.632737 6.20688C0.820273 6.39442 1.07463 6.49978 1.33984 6.49978H10.8598L8.55984 8.78978C8.46612 8.88274 8.39172 8.99334 8.34095 9.1152C8.29018 9.23706 8.26405 9.36777 8.26405 9.49978C8.26405 9.63179 8.29018 9.76249 8.34095 9.88435C8.39172 10.0062 8.46612 10.1168 8.55984 10.2098C8.65281 10.3035 8.76341 10.3779 8.88527 10.4287C9.00713 10.4794 9.13783 10.5056 9.26984 10.5056C9.40186 10.5056 9.53256 10.4794 9.65442 10.4287C9.77628 10.3779 9.88688 10.3035 9.97984 10.2098L13.9798 6.20978C13.9831 6.18656 13.9831 6.16299 13.9798 6.13978C14.0655 6.06698 14.1367 5.9788 14.1898 5.87978Z" fill="black"/>
</g>
</g>
<defs>
<clipPath id="clip0_1_1531">
<rect width="14" height="10" fill="white" transform="translate(0.269531 0.5)"/>
</clipPath>
<clipPath id="clip1_1_1531">
<rect width="14" height="10" fill="white" transform="translate(0.269531 0.5)"/>
</clipPath>
</defs>
</svg>
