<svg width="15" height="14" viewBox="0 0 15 14" fill="none" xmlns="http://www.w3.org/2000/svg">
<path d="M3.44125 8.84688C3.44125 9.65625 2.78 10.3175 1.97063 10.3175C1.16125 10.3175 0.5 9.65625 0.5 8.84688C0.5 8.0375 1.16125 7.37625 1.97063 7.37625H3.44125V8.84688ZM4.1825 8.84688C4.1825 8.0375 4.84375 7.37625 5.65312 7.37625C6.4625 7.37625 7.12375 8.0375 7.12375 8.84688V12.5294C7.12375 13.3388 6.4625 14 5.65312 14C4.84375 14 4.1825 13.3388 4.1825 12.5294V8.84688ZM5.65312 2.94125C4.84375 2.94125 4.1825 2.28 4.1825 1.47062C4.1825 0.66125 4.84375 0 5.65312 0C6.4625 0 7.12375 0.66125 7.12375 1.47062V2.94125H5.65312ZM5.65312 3.6825C6.4625 3.6825 7.12375 4.34375 7.12375 5.15312C7.12375 5.9625 6.4625 6.62375 5.65312 6.62375H1.97063C1.16125 6.62375 0.5 5.9625 0.5 5.15312C0.5 4.34375 1.16125 3.6825 1.97063 3.6825H5.65312ZM11.5588 5.15312C11.5588 4.34375 12.22 3.6825 13.0294 3.6825C13.8388 3.6825 14.5 4.34375 14.5 5.15312C14.5 5.9625 13.8388 6.62375 13.0294 6.62375H11.5588V5.15312ZM10.8175 5.15312C10.8175 5.9625 10.1563 6.62375 9.34688 6.62375C8.5375 6.62375 7.87625 5.9625 7.87625 5.15312V1.47062C7.87625 0.66125 8.5375 0 9.34688 0C10.1563 0 10.8175 0.66125 10.8175 1.47062V5.15312ZM9.34688 11.0588C10.1563 11.0588 10.8175 11.72 10.8175 12.5294C10.8175 13.3388 10.1563 14 9.34688 14C8.5375 14 7.87625 13.3388 7.87625 12.5294V11.0588H9.34688ZM9.34688 10.3175C8.5375 10.3175 7.87625 9.65625 7.87625 8.84688C7.87625 8.0375 8.5375 7.37625 9.34688 7.37625H13.0294C13.8388 7.37625 14.5 8.0375 14.5 8.84688C14.5 9.65625 13.8388 10.3175 13.0294 10.3175H9.34688Z" fill="white"/>
</svg>
