<svg width="22" height="21" viewBox="0 0 22 21" fill="none" xmlns="http://www.w3.org/2000/svg">
<path d="M11.1539 7.87316H10.0032V12.9816H11.1539C12.8463 12.9816 13.9786 12.0616 13.9786 10.4395C13.9786 8.80527 12.8463 7.87316 11.1539 7.87316ZM11.1539 7.87316H10.0032V12.9816H11.1539C12.8463 12.9816 13.9786 12.0616 13.9786 10.4395C13.9786 8.80527 12.8463 7.87316 11.1539 7.87316ZM20.557 6.43264C19.6249 4.2997 17.9705 2.55008 15.8751 1.4812C13.7797 0.412313 11.3726 0.0901302 9.063 0.569417C6.7534 1.0487 4.68382 2.29988 3.20607 4.11026C1.72833 5.92064 0.933612 8.17849 0.957025 10.5C0.949914 11.9606 1.26264 13.4057 1.87395 14.7368L1.61549 15.3421L0.181641 18.8224L4.1201 18.2958L4.57549 18.2353C6.39698 19.7846 8.72119 20.6432 11.1293 20.6563H11.3386C14.0394 20.6101 16.6126 19.5174 18.499 17.6157C20.3853 15.7139 21.4323 13.1568 21.4124 10.5C21.4131 9.10095 21.122 7.71663 20.557 6.43264ZM10.9509 15.5116H7.10472V5.31895H11.0063C14.6247 5.31895 16.7232 7.42527 16.7232 10.3668C16.7232 13.3447 14.5939 15.5358 10.9509 15.5358V15.5116ZM11.1539 7.84895H10.0032V12.9816H11.1539C12.8463 12.9816 13.9786 12.0616 13.9786 10.4395C13.9786 8.80527 12.8463 7.87316 11.1539 7.87316V7.84895Z" fill="#2E9FFF"/>
</svg>
