<svg width="25" height="24" viewBox="0 0 25 24" fill="none" xmlns="http://www.w3.org/2000/svg">
<path d="M12.4842 22.579C18.3268 22.579 23.0632 17.8426 23.0632 12C23.0632 6.15744 18.3268 1.42108 12.4842 1.42108C6.64163 1.42108 1.90527 6.15744 1.90527 12C1.90527 17.8426 6.64163 22.579 12.4842 22.579Z" fill="white"/>
<path d="M15.5983 5.81684V7.90737H14.3793C14.2088 7.88552 14.0357 7.90135 13.872 7.95373C13.7083 8.00611 13.5581 8.09377 13.432 8.21052C13.2574 8.45898 13.1748 8.76043 13.1983 9.06316V10.5474H15.5162L15.2067 12.8905H13.1983V18.9032H10.773V12.8905H8.75195V10.5474H10.773V8.8421C10.7471 8.4252 10.8065 8.00739 10.9477 7.61426C11.0889 7.22114 11.3088 6.86096 11.5941 6.55579C11.8871 6.27995 12.2328 6.06615 12.6105 5.92723C12.9882 5.78831 13.39 5.72713 13.792 5.74737C14.3949 5.7291 14.9985 5.75232 15.5983 5.81684Z" fill="#3C569A"/>
</svg>
