<svg width="22" height="22" viewBox="0 0 22 22" fill="none" xmlns="http://www.w3.org/2000/svg">
<path d="M11.0155 21.579C16.8581 21.579 21.5944 16.8426 21.5944 11C21.5944 5.15744 16.8581 0.421082 11.0155 0.421082C5.17288 0.421082 0.436523 5.15744 0.436523 11C0.436523 16.8426 5.17288 21.579 11.0155 21.579Z" fill="#E31C2E"/>
<path d="M16.5796 11.1326C16.5986 12.1292 16.3685 13.1148 15.9101 14C15.4697 14.8275 14.8011 15.5114 13.9838 15.9705C13.112 16.4565 12.127 16.7028 11.1291 16.6842C10.3695 16.6856 9.61751 16.5331 8.91853 16.2358C8.23967 15.9572 7.62309 15.5462 7.10476 15.0268C6.58644 14.5074 6.17674 13.8899 5.89958 13.2105C5.60429 12.5109 5.45215 11.7593 5.45215 11C5.45215 10.2406 5.60429 9.48901 5.89958 8.78945C6.17744 8.11118 6.58745 7.49496 7.10574 6.97666C7.62404 6.45837 8.24026 6.04836 8.91853 5.7705C9.61705 5.47104 10.3691 5.31635 11.1291 5.31577C12.5381 5.29398 13.8991 5.82706 14.9185 6.79998L13.3775 8.28419C13.0785 7.99403 12.7243 7.76682 12.3359 7.61603C11.9476 7.46523 11.5329 7.39391 11.1164 7.40629C10.496 7.40053 9.88611 7.56667 9.35432 7.88629C8.54704 8.37947 7.96362 9.16773 7.7278 10.0839C7.49198 11 7.62232 11.972 8.09116 12.7937C8.39111 13.3321 8.82655 13.7827 9.35432 14.101C9.88611 14.4207 10.496 14.5868 11.1164 14.581C11.5169 14.5832 11.9152 14.5236 12.2975 14.4042C12.6147 14.304 12.9134 14.1526 13.1817 13.9558C13.42 13.775 13.6325 13.5625 13.8133 13.3242C13.9656 13.1304 14.0929 12.9182 14.1922 12.6926C14.2648 12.5066 14.3198 12.3142 14.3564 12.1179H11.1354V10.1852H16.4975C16.5518 10.4981 16.5793 10.8151 16.5796 11.1326Z" fill="white"/>
</svg>
