<svg width="22" height="22" viewBox="0 0 22 22" fill="none" xmlns="http://www.w3.org/2000/svg">
<path d="M10.6873 21.1052C16.2686 21.1052 20.7926 16.5812 20.7926 11C20.7926 5.41871 16.2686 0.894714 10.6873 0.894714C5.10603 0.894714 0.582031 5.41871 0.582031 11C0.582031 16.5812 5.10603 21.1052 10.6873 21.1052Z" fill="black" stroke="white" stroke-width="0.5" stroke-miterlimit="10"/>
<path d="M15.9539 8.78882C15.4998 9.06695 15.1236 9.45571 14.8606 9.91874C14.5976 10.3818 14.4564 10.9039 14.4501 11.4364C14.4518 12.0357 14.6293 12.6214 14.9606 13.1209C15.2919 13.6203 15.7624 14.0116 16.3139 14.2463C16.0965 14.9477 15.7748 15.6124 15.3596 16.2181C14.7652 17.0739 14.1438 17.9297 13.1983 17.9297C12.2528 17.9297 12.009 17.3802 10.9196 17.3802C9.85725 17.3802 9.47893 17.9473 8.6143 17.9473C7.74904 17.9473 7.14651 17.1547 6.45303 16.1821C5.53705 14.8199 5.03355 13.2223 5.00293 11.581C5.00293 8.87977 6.75872 7.44798 8.48798 7.44798C9.40693 7.44798 10.1724 8.05114 10.749 8.05114C11.2985 8.05114 12.1537 7.41135 13.1983 7.41135C13.7354 7.39765 14.2676 7.51616 14.7481 7.75647C15.2286 7.99678 15.6427 8.35152 15.9539 8.78945V8.78882ZM12.7031 6.26756C13.1636 5.72586 13.4242 5.04253 13.4415 4.33177C13.4422 4.23802 13.4331 4.14446 13.4143 4.05261C12.6233 4.12981 11.8918 4.50674 11.3699 5.10609C10.9049 5.62617 10.6344 6.29122 10.6044 6.98819C10.6044 7.07345 10.6139 7.15745 10.6316 7.24082C10.6941 7.25219 10.7572 7.25851 10.821 7.25851C11.1856 7.22948 11.5404 7.1266 11.864 6.95614C12.1875 6.78568 12.473 6.55119 12.7031 6.26693V6.26756Z" fill="white"/>
</svg>
