<svg width="14" height="13" viewBox="0 0 14 13" fill="none" xmlns="http://www.w3.org/2000/svg">
<path d="M6.64331 0.550781C3.07226 0.550781 0.0930634 2.78518 0.0930634 5.69788V5.93728C0.126399 6.49378 0.268745 7.03831 0.512013 7.53993L0.618413 7.74608L0.605113 7.89238L0.478763 8.31798C0.182104 9.2421 0.0317711 10.2069 0.0332134 11.1775C0.0518979 11.3147 0.0989431 11.4465 0.171354 11.5645C0.243765 11.6825 0.339956 11.7842 0.453803 11.863C0.567651 11.9418 0.696661 11.9961 0.832622 12.0223C0.968583 12.0485 1.10852 12.0462 1.24351 12.0154C1.40266 11.9965 1.55895 11.9586 1.70901 11.9023L2.06146 11.7693L2.35406 11.6097L3.45131 11.091C3.91016 10.8782 4.22936 10.7386 4.44216 10.6654H4.50866H4.31581C5.08285 10.8121 5.8624 10.8834 6.64331 10.8782C10.2144 10.8782 13.1936 8.64383 13.1936 5.73113C13.1936 2.81843 10.2144 0.550781 6.64331 0.550781ZM6.64331 2.41943C9.30331 2.41943 11.2983 3.95558 11.2983 5.69788C11.2983 7.44018 9.25011 8.94973 6.64331 8.94973C6.06862 8.95592 5.49449 8.91141 4.92761 8.81673L4.48206 8.74358H4.32246C3.81795 8.85323 3.33039 9.02991 2.87276 9.26893L2.03486 9.66128V9.60143C2.15576 9.03537 2.31348 8.4778 2.50701 7.93228L2.69321 7.46678L2.40726 7.05448C2.11845 6.65931 1.95406 6.18698 1.93511 5.69788C1.93511 3.95558 4.00991 2.41943 6.64331 2.41943Z" fill="#032D60"/>
</svg>
