<svg width="14" height="13" viewBox="0 0 14 13" fill="none" xmlns="http://www.w3.org/2000/svg">
<path d="M6.70288 0.550781C3.13183 0.550781 0.152634 2.78518 0.152634 5.69788V5.93728C0.18597 6.49378 0.328315 7.03831 0.571584 7.53993L0.677984 7.74608L0.664684 7.89238L0.538334 8.31798C0.241674 9.2421 0.0913414 10.2069 0.0927837 11.1775C0.111468 11.3147 0.158513 11.4465 0.230924 11.5645C0.303336 11.6825 0.399526 11.7842 0.513374 11.863C0.627221 11.9418 0.756231 11.9961 0.892192 12.0223C1.02815 12.0485 1.16809 12.0462 1.30308 12.0154C1.46223 11.9965 1.61852 11.9586 1.76858 11.9023L2.12103 11.7693L2.41363 11.6097L3.51088 11.091C3.96973 10.8782 4.28893 10.7386 4.50173 10.6654H4.56823H4.37538C5.14242 10.8121 5.92197 10.8834 6.70288 10.8782C10.2739 10.8782 13.2531 8.64383 13.2531 5.73113C13.2531 2.81843 10.2739 0.550781 6.70288 0.550781ZM6.70288 2.41943C9.36288 2.41943 11.3579 3.95558 11.3579 5.69788C11.3579 7.44018 9.30968 8.94973 6.70288 8.94973C6.12819 8.95592 5.55406 8.91141 4.98718 8.81673L4.54163 8.74358H4.38203C3.87752 8.85323 3.38996 9.02991 2.93233 9.26893L2.09443 9.66128V9.60143C2.21533 9.03537 2.37305 8.4778 2.56658 7.93228L2.75278 7.46678L2.46683 7.05448C2.17802 6.65931 2.01363 6.18698 1.99468 5.69788C1.99468 3.95558 4.06948 2.41943 6.70288 2.41943Z" fill="#032D60"/>
</svg>
