<svg width="19" height="18" viewBox="0 0 19 18" fill="none" xmlns="http://www.w3.org/2000/svg">
<path d="M12 6.99905L11.26 6.87605C11.2421 6.98348 11.2479 7.09352 11.2769 7.19851C11.3058 7.3035 11.3573 7.40092 11.4277 7.484C11.4982 7.56708 11.5858 7.63383 11.6847 7.6796C11.7835 7.72537 11.8911 7.74907 12 7.74905V6.99905ZM1 6.99905V6.24905C0.801088 6.24905 0.610322 6.32806 0.46967 6.46872C0.329018 6.60937 0.25 6.80013 0.25 6.99905H1ZM3 17.749H14.36V16.249H3V17.749ZM15.56 6.24905H12V7.74905H15.56V6.24905ZM12.74 7.12205L13.546 2.28705L12.066 2.04005L11.26 6.87605L12.74 7.12205ZM11.82 0.249047H11.606V1.74905H11.819L11.82 0.249047ZM8.485 1.91905L5.97 5.69205L7.218 6.52405L9.733 2.75105L8.485 1.91905ZM4.93 6.24905H1V7.74905H4.93V6.24905ZM0.25 6.99905V14.999H1.75V6.99905H0.25ZM17.057 15.539L18.257 9.53905L16.787 9.24405L15.587 15.244L17.057 15.539ZM5.97 5.69205C5.8559 5.86333 5.70127 6.00279 5.51985 6.09996C5.33842 6.19713 5.13581 6.24799 4.93 6.24805V7.74805C5.85 7.74805 6.708 7.28905 7.218 6.52405L5.97 5.69205ZM13.546 2.28705C13.5877 2.03642 13.5743 1.77872 13.5067 1.53379C13.4392 1.28886 13.3191 1.06158 13.1549 0.867737C12.9906 0.673895 12.7861 0.518141 12.5556 0.411299C12.3251 0.304458 12.0741 0.249091 11.82 0.249047L11.819 1.74905C11.8552 1.74914 11.892 1.75711 11.9249 1.77241C11.9578 1.7877 11.9869 1.80997 12.0103 1.83765C12.0337 1.86533 12.0508 1.89777 12.0604 1.93272C12.07 1.96767 12.0719 2.00429 12.066 2.04005L13.546 2.28705ZM15.56 7.74805C16.35 7.74805 16.94 8.47005 16.786 9.24305L18.257 9.53805C18.3366 9.13914 18.3267 8.72655 18.228 8.33193C18.1293 7.93732 17.9443 7.5695 17.6864 7.255C17.4284 6.9405 17.1039 6.68715 16.7362 6.5132C16.3685 6.33924 15.9668 6.24903 15.56 6.24905V7.74805ZM14.36 17.749C14.9957 17.7492 15.6118 17.528 16.1035 17.1251C16.5952 16.7222 16.9322 16.1614 17.057 15.538L15.587 15.243C15.5303 15.5266 15.377 15.7818 15.1533 15.9651C14.9296 16.1483 14.6492 16.2493 14.36 16.249V17.749ZM11.606 0.249047C10.9887 0.249092 10.3809 0.400542 9.83662 0.691867C9.29235 0.983192 8.82841 1.40438 8.486 1.91805L9.733 2.75105C9.93854 2.44271 10.2171 2.18891 10.5438 2.0141C10.8706 1.8393 11.2354 1.74891 11.606 1.74905V0.249047ZM3 16.249C2.31 16.249 1.75 15.689 1.75 14.999H0.25C0.25 15.7284 0.539731 16.4279 1.05546 16.9436C1.57118 17.4593 2.27065 17.749 3 17.749V16.249Z" fill="#181818" fill-opacity="0.5"/>
</svg>
