<svg width="21" height="18" viewBox="0 0 21 18" fill="none" xmlns="http://www.w3.org/2000/svg">
<path d="M13.1607 0.158021C13.0498 0.071784 12.917 0.0184088 12.7773 0.00397267C12.6376 -0.0104635 12.4966 0.0146196 12.3705 0.0763659C12.2443 0.138112 12.138 0.23404 12.0637 0.353227C11.9894 0.472414 11.9501 0.61007 11.9502 0.750521V3.74002L11.7477 3.75052C10.9551 3.80453 10.1747 3.97486 9.4317 4.25602C8.18155 4.72919 7.09169 5.54802 6.2892 6.61702C5.35469 7.85602 4.6677 9.57502 4.4532 11.933C4.43899 12.0867 4.47254 12.241 4.54927 12.3749C4.626 12.5088 4.74217 12.6158 4.88193 12.6813C5.0217 12.7467 5.17825 12.7674 5.33024 12.7407C5.48222 12.7139 5.62224 12.6408 5.7312 12.5315C7.5132 10.7465 9.28469 9.86752 10.5942 9.43102C11.1342 9.25102 11.5962 9.14602 11.9502 9.08602V12.0005C11.9502 12.1451 11.9919 12.2866 12.0704 12.408C12.1489 12.5294 12.2608 12.6255 12.3927 12.6848C12.5246 12.7441 12.6707 12.764 12.8136 12.7421C12.9566 12.7202 13.0901 12.6575 13.1982 12.5615L19.9482 6.56152C20.0306 6.48842 20.096 6.39806 20.1395 6.29686C20.1831 6.19565 20.2038 6.08609 20.2002 5.97597C20.1967 5.86584 20.1689 5.75786 20.1188 5.6597C20.0688 5.56154 19.9977 5.47561 19.9107 5.40802L13.1607 0.158021ZM12.6147 5.24602H12.6192C12.7239 5.2574 12.8298 5.24659 12.9301 5.21431C13.0303 5.18203 13.1226 5.12901 13.201 5.05868C13.2794 4.98835 13.3421 4.9023 13.3851 4.80614C13.428 4.70997 13.4502 4.60584 13.4502 4.50052V2.28352L18.2787 6.03952L13.4502 10.3295V8.25052C13.4502 8.05161 13.3712 7.86084 13.2305 7.72019C13.0899 7.57954 12.8991 7.50052 12.7002 7.50052H12.6327L12.4827 7.50952C12.3046 7.52218 12.127 7.54119 11.9502 7.56652C11.5002 7.63102 10.8702 7.75702 10.1202 8.00752C8.74362 8.47489 7.45262 9.16396 6.29819 10.0475C6.5892 8.97352 7.0122 8.15152 7.4877 7.52002C8.12077 6.67579 8.9814 6.02953 9.96869 5.65702C10.7549 5.36115 11.5903 5.21809 12.4302 5.23552C12.4982 5.23752 12.5482 5.24002 12.5802 5.24302L12.6147 5.24602ZM4.4502 1.50052C3.45563 1.50052 2.50181 1.89561 1.79854 2.59887C1.09528 3.30213 0.700195 4.25596 0.700195 5.25052V14.2505C0.700195 15.2451 1.09528 16.1989 1.79854 16.9022C2.50181 17.6054 3.45563 18.0005 4.4502 18.0005H13.4502C14.4448 18.0005 15.3986 17.6054 16.1018 16.9022C16.8051 16.1989 17.2002 15.2451 17.2002 14.2505V12.7505C17.2002 12.5516 17.1212 12.3608 16.9805 12.2202C16.8399 12.0795 16.6491 12.0005 16.4502 12.0005C16.2513 12.0005 16.0605 12.0795 15.9199 12.2202C15.7792 12.3608 15.7002 12.5516 15.7002 12.7505V14.2505C15.7002 14.8473 15.4631 15.4196 15.0412 15.8415C14.6192 16.2635 14.0469 16.5005 13.4502 16.5005H4.4502C3.85346 16.5005 3.28116 16.2635 2.85921 15.8415C2.43725 15.4196 2.2002 14.8473 2.2002 14.2505V5.25052C2.2002 4.65378 2.43725 4.08149 2.85921 3.65953C3.28116 3.23757 3.85346 3.00052 4.4502 3.00052H7.4502C7.64911 3.00052 7.83987 2.9215 7.98053 2.78085C8.12118 2.6402 8.2002 2.44943 8.2002 2.25052C8.2002 2.05161 8.12118 1.86084 7.98053 1.72019C7.83987 1.57954 7.64911 1.50052 7.4502 1.50052H4.4502Z" fill="#181818" fill-opacity="0.5"/>
</svg>
