<svg width="23" height="20" viewBox="0 0 23 20" fill="none" xmlns="http://www.w3.org/2000/svg">
<path d="M3.1642 14.828C1.7002 13.657 1.7002 12.771 1.7002 9C1.7002 5.229 1.7002 3.343 3.1642 2.172C4.6302 1 6.9862 1 11.7002 1C16.4142 1 18.7712 1 20.2352 2.172C21.6992 3.344 21.7002 5.229 21.7002 9C21.7002 12.771 21.7002 13.657 20.2352 14.828C18.7722 16 16.4142 16 11.7002 16C9.1902 16 7.9002 17.738 5.7002 19V15.788C4.6062 15.625 3.8012 15.338 3.1642 14.828Z" stroke="#181818" stroke-width="1.5" stroke-linecap="round" stroke-linejoin="round"/>
<path d="M7.7002 7.514H13.7002C14.2306 7.514 14.7393 7.72471 15.1144 8.09979C15.4895 8.47486 15.7002 8.98357 15.7002 9.514V12M7.7002 7.514L10.0902 10.027M7.7002 7.514L10.0902 5" stroke="#181818" stroke-width="1.5" stroke-linecap="round" stroke-linejoin="round"/>
</svg>
