<svg width="21" height="11" viewBox="0 0 21 11" fill="none" xmlns="http://www.w3.org/2000/svg">
<path d="M15.0859 1.24585H11.4189V3.07985H15.0859C15.8145 3.08248 16.5124 3.37306 17.0276 3.88822C17.5427 4.40337 17.8333 5.10131 17.8359 5.82985C17.8333 6.55838 17.5427 7.25633 17.0276 7.77148C16.5124 8.28664 15.8145 8.57721 15.0859 8.57985H11.4189V10.4128H15.0859C16.3013 10.4123 17.4667 9.9293 18.326 9.06993C19.1854 8.21057 19.6684 7.04517 19.6689 5.82985C19.6687 4.61435 19.1858 3.4487 18.3264 2.58912C17.467 1.72954 16.3014 1.24638 15.0859 1.24585ZM9.58594 8.57985H5.91894C5.1904 8.57721 4.49246 8.28664 3.9773 7.77148C3.46215 7.25633 3.17157 6.55838 3.16894 5.82985C3.17157 5.10131 3.46215 4.40337 3.9773 3.88822C4.49246 3.37306 5.1904 3.08248 5.91894 3.07985H9.58594V1.24585H5.91894C4.70344 1.24638 3.53789 1.72954 2.6785 2.58912C1.81911 3.4487 1.3362 4.61435 1.33594 5.82985C1.33647 7.04517 1.81949 8.21057 2.67885 9.06993C3.53822 9.9293 4.70361 10.4123 5.91894 10.4128H9.58594V8.57985ZM6.83594 4.91285H14.1689V6.74585H6.83594V4.91285Z" fill="#032D60"/>
</svg>
