<svg width="19" height="20" viewBox="0 0 19 20" fill="none" xmlns="http://www.w3.org/2000/svg">
<path d="M19 9.83984C19 7.32029 17.9991 4.90392 16.2175 3.12233C14.4359 1.34073 12.0196 0.339844 9.5 0.339844C6.98044 0.339844 4.56408 1.34073 2.78249 3.12233C1.00089 4.90392 0 7.32029 0 9.83984C0 14.5818 3.474 18.5118 8.016 19.2248V12.5858H5.604V9.83984H8.016V7.74684C8.016 5.36684 9.434 4.05084 11.604 4.05084C12.644 4.05084 13.731 4.23584 13.731 4.23584V6.57384H12.533C11.353 6.57384 10.984 7.30684 10.984 8.05784V9.83984H13.619L13.198 12.5858H10.984V19.2248C15.526 18.5118 19 14.5818 19 9.83984Z" fill="#032D60"/>
</svg>
