<svg width="21" height="22" viewBox="0 0 21 22" fill="none" xmlns="http://www.w3.org/2000/svg">
<path d="M16.625 0.339844H4.375C3.21468 0.339844 2.10188 0.80078 1.28141 1.62125C0.460936 2.44172 0 3.55452 0 4.71484L0 16.9648C0 18.1252 0.460936 19.238 1.28141 20.0584C2.10188 20.8789 3.21468 21.3398 4.375 21.3398H16.625C17.7853 21.3398 18.8981 20.8789 19.7186 20.0584C20.5391 19.238 21 18.1252 21 16.9648V4.71484C21 3.55452 20.5391 2.44172 19.7186 1.62125C18.8981 0.80078 17.7853 0.339844 16.625 0.339844ZM7 16.9648H4.375V7.33984H7V16.9648ZM5.687 6.22984C5.27978 6.2272 4.89019 6.06337 4.60346 5.7742C4.31672 5.48504 4.1562 5.09407 4.157 4.68684C4.157 3.83484 4.842 3.14284 5.687 3.14284C6.533 3.14284 7.219 3.83484 7.219 4.68684C7.219 5.53884 6.534 6.22984 5.687 6.22984ZM17.5 16.9648H14.875V12.0618C14.875 9.11484 11.375 9.33784 11.375 12.0618V16.9648H8.75V7.33984H11.375V8.88384C12.597 6.62184 17.5 6.45384 17.5 11.0508V16.9648Z" fill="#032D60"/>
</svg>
