<svg width="27" height="28" viewBox="0 0 27 28" fill="none" xmlns="http://www.w3.org/2000/svg">
<path d="M19.8708 9.02148C19.7256 8.66515 19.5107 8.34143 19.2386 8.06935C18.9665 7.79727 18.6428 7.58231 18.2864 7.43711C17.7844 7.25374 17.2552 7.15551 16.7208 7.14648C15.8302 7.14648 15.5583 7.09961 13.3083 7.09961C11.0583 7.09961 10.7864 7.09961 9.89582 7.14648C9.36141 7.15551 8.83225 7.25374 8.3302 7.43711C7.97387 7.58231 7.65015 7.79727 7.37807 8.06935C7.10599 8.34143 6.89103 8.66515 6.74582 9.02148C6.56246 9.52354 6.46423 10.0527 6.4552 10.5871C6.4552 11.5246 6.40833 11.7496 6.40833 13.9996C6.40833 16.2496 6.40832 16.5215 6.4552 17.4121C6.46423 17.9465 6.56246 18.4757 6.74582 18.9777C6.89103 19.3341 7.10599 19.6578 7.37807 19.9299C7.65015 20.2019 7.97387 20.4169 8.3302 20.5621C8.83225 20.7455 9.36141 20.8437 9.89582 20.8527C10.8333 20.8527 11.0583 20.8996 13.3083 20.8996C15.5583 20.8996 15.8302 20.8996 16.7208 20.8527C17.2552 20.8437 17.7844 20.7455 18.2864 20.5621C18.6428 20.4169 18.9665 20.2019 19.2386 19.9299C19.5107 19.6578 19.7256 19.3341 19.8708 18.9777C20.0542 18.4757 20.1524 17.9465 20.1614 17.4121C20.1614 16.5215 20.2083 16.2496 20.2083 13.9996C20.2083 11.7496 20.2083 11.4777 20.1614 10.5871C20.1524 10.0527 20.0542 9.52354 19.8708 9.02148ZM13.3083 18.3309C12.4517 18.3309 11.6143 18.0768 10.902 17.6009C10.1897 17.125 9.63459 16.4485 9.30677 15.6571C8.97895 14.8657 8.89318 13.9948 9.0603 13.1546C9.22742 12.3144 9.63993 11.5427 10.2457 10.937C10.8514 10.3312 11.6232 9.9187 12.4633 9.75158C13.3035 9.58446 14.1744 9.67023 14.9658 9.99806C15.7573 10.3259 16.4337 10.881 16.9096 11.5933C17.3856 12.3056 17.6396 13.143 17.6396 13.9996C17.6396 15.1483 17.1832 16.25 16.371 17.0623C15.5587 17.8745 14.457 18.3309 13.3083 18.3309ZM17.8083 10.5121C17.5398 10.5121 17.2823 10.4054 17.0924 10.2156C16.9025 10.0257 16.7958 9.76814 16.7958 9.49961C16.7958 9.23108 16.9025 8.97354 17.0924 8.78366C17.2823 8.59378 17.5398 8.48711 17.8083 8.48711C18.0769 8.48711 18.3344 8.59378 18.5243 8.78366C18.7142 8.97354 18.8208 9.23108 18.8208 9.49961C18.8208 9.76814 18.7142 10.0257 18.5243 10.2156C18.3344 10.4054 18.0769 10.5121 17.8083 10.5121Z" fill="#59575C"/>
<path d="M13.3068 16.8125C14.8601 16.8125 16.1193 15.5533 16.1193 14C16.1193 12.4467 14.8601 11.1875 13.3068 11.1875C11.7535 11.1875 10.4943 12.4467 10.4943 14C10.4943 15.5533 11.7535 16.8125 13.3068 16.8125Z" fill="#59575C"/>
<path d="M22.6818 0.875H3.93176C2.9372 0.875 1.98337 1.27009 1.28011 1.97335C0.576851 2.67661 0.181763 3.63044 0.181763 4.625V23.375C0.181763 24.3696 0.576851 25.3234 1.28011 26.0266C1.98337 26.7299 2.9372 27.125 3.93176 27.125H22.6818C23.6763 27.125 24.6302 26.7299 25.3334 26.0266C26.0367 25.3234 26.4318 24.3696 26.4318 23.375V4.625C26.4318 3.63044 26.0367 2.67661 25.3334 1.97335C24.6302 1.27009 23.6763 0.875 22.6818 0.875ZM21.7443 17.4781C21.7252 18.1793 21.5922 18.8727 21.3505 19.5312C21.1318 20.0901 20.7999 20.5976 20.3756 21.0219C19.9512 21.4462 19.4437 21.7782 18.8849 21.9969C18.2264 22.2386 17.533 22.3716 16.8318 22.3906C15.8943 22.3906 15.6411 22.4375 13.3536 22.4375C11.0661 22.4375 10.7755 22.4375 9.87551 22.3906C9.17432 22.3716 8.48089 22.2386 7.82239 21.9969C7.25491 21.7837 6.73826 21.4542 6.30558 21.0296C5.87291 20.605 5.53376 20.0946 5.30989 19.5312C5.06819 18.8727 4.9352 18.1793 4.91614 17.4781C4.91614 16.5406 4.91614 16.2875 4.91614 14C4.91614 11.7125 4.91614 11.4219 4.91614 10.5219C4.9352 9.82068 5.06819 9.12725 5.30989 8.46875C5.52857 7.90993 5.86051 7.4024 6.28484 6.97808C6.70916 6.55375 7.21669 6.22181 7.77551 6.00312C8.43401 5.76143 9.12744 5.62844 9.82864 5.60938C10.7661 5.60938 11.0193 5.60938 13.3068 5.60938C15.5943 5.60938 15.8849 5.60938 16.7849 5.60938C17.4861 5.62844 18.1795 5.76143 18.838 6.00312C19.3968 6.22181 19.9044 6.55375 20.3287 6.97808C20.753 7.4024 21.085 7.90993 21.3036 8.46875C21.5614 9.12456 21.7102 9.81807 21.7443 10.5219C21.7443 11.4594 21.7911 11.7125 21.7911 14C21.7911 16.2875 21.7443 16.5781 21.7443 17.4781Z" fill="#59575C"/>
</svg>
