<svg width="31" height="30" viewBox="0 0 31 30" fill="none" xmlns="http://www.w3.org/2000/svg">
<g clip-path="url(#clip0_1_364)">
<path d="M7.33667 3.1875H24.2117C26.0867 3.1875 27.5867 4.6875 27.5867 6.5625V23.4375C27.5867 25.3125 26.0867 26.8125 24.2117 26.8125H7.33667C5.46167 26.8125 3.96167 25.3125 3.96167 23.4375V6.5625C3.96167 4.6875 5.46167 3.1875 7.33667 3.1875Z" fill="white"/>
<path d="M25.1492 1.875H6.39917C4.33667 1.875 2.64917 3.5625 2.64917 5.625V24.375C2.64917 26.4375 4.33667 28.125 6.39917 28.125H25.1492C27.2117 28.125 28.8992 26.4375 28.8992 24.375V5.625C28.8992 3.5625 27.2117 1.875 25.1492 1.875Z" fill="#59575C"/>
<path d="M17.0867 13.875L22.3367 7.78125H21.1179L16.5242 13.125L12.9617 7.78125H8.74292L14.2742 15.75L8.74292 22.125H9.96167L14.7429 16.5L18.5867 22.125H22.8054L17.0867 13.875ZM15.3992 15.8437L14.8367 15.0938L10.4304 8.71875H12.3054L15.8679 13.875L16.4304 14.625L21.1179 21.2813H19.2429L15.3992 15.8437Z" fill="white"/>
</g>
<defs>
<clipPath id="clip0_1_364">
<rect width="30" height="30" fill="white" transform="translate(0.77417)"/>
</clipPath>
</defs>
</svg>
