<svg width="27" height="28" viewBox="0 0 27 28" fill="none" xmlns="http://www.w3.org/2000/svg">
<path d="M22.9077 0.875H4.15771C3.16315 0.875 2.20933 1.27009 1.50606 1.97335C0.802803 2.67661 0.407715 3.63044 0.407715 4.625V23.375C0.407715 24.3696 0.802803 25.3234 1.50606 26.0266C2.20933 26.7299 3.16315 27.125 4.15771 27.125H22.9077C23.9023 27.125 24.8561 26.7299 25.5594 26.0266C26.2626 25.3234 26.6577 24.3696 26.6577 23.375V4.625C26.6577 3.63044 26.2626 2.67661 25.5594 1.97335C24.8561 1.27009 23.9023 0.875 22.9077 0.875ZM8.19834 23.2438H4.29834V10.7188H8.19834V23.2438ZM6.24834 9.00313C5.80148 9.00313 5.36465 8.87062 4.9931 8.62235C4.62155 8.37409 4.33196 8.02122 4.16095 7.60838C3.98994 7.19553 3.9452 6.74124 4.03238 6.30297C4.11956 5.86469 4.33474 5.46211 4.65072 5.14613C4.9667 4.83015 5.36928 4.61497 5.80756 4.52779C6.24583 4.44061 6.70012 4.48535 7.11297 4.65636C7.52581 4.82737 7.87868 5.11696 8.12694 5.48851C8.37521 5.86006 8.50772 6.29689 8.50772 6.74375C8.50896 7.0408 8.45136 7.33516 8.33826 7.60984C8.22515 7.88452 8.05877 8.13409 7.84872 8.34413C7.63868 8.55418 7.38911 8.72056 7.11443 8.83367C6.83975 8.94677 6.54539 9.00436 6.24834 9.00313ZM22.7765 23.2438H18.8858V17.15C18.8858 15.6969 18.8858 13.8312 16.8608 13.8312C14.8358 13.8312 14.5265 15.4156 14.5265 17.0469V23.2438H10.6358V10.7188H14.3858V12.425H14.4702C14.8445 11.7871 15.3849 11.2628 16.0337 10.9078C16.6826 10.5529 17.4156 10.3806 18.1546 10.4094C22.0921 10.4094 22.8421 12.9969 22.8421 16.3719L22.7765 23.2438Z" fill="#59575C"/>
</svg>
