<svg width="18" height="17" viewBox="0 0 18 17" fill="none" xmlns="http://www.w3.org/2000/svg">
<path d="M18 16.5H0V0.5H18V16.5Z" stroke="#E5E7EB"/>
<path d="M0 3.5C0 2.39688 0.896875 1.5 2 1.5H10C11.1031 1.5 12 2.39688 12 3.5V11.5C12 12.6031 11.1031 13.5 10 13.5H2C0.896875 13.5 0 12.6031 0 11.5V3.5ZM17.4719 2.61875C17.7969 2.79375 18 3.13125 18 3.5V11.5C18 11.8687 17.7969 12.2063 17.4719 12.3813C17.1469 12.5563 16.7531 12.5375 16.4438 12.3313L13.4438 10.3313L13 10.0344V9.5V5.5V4.96562L13.4438 4.66875L16.4438 2.66875C16.75 2.46563 17.1437 2.44375 17.4719 2.61875Z" fill="#0176D3"/>
</svg>
