<svg width="28" height="28" viewBox="0 0 28 28" fill="none" xmlns="http://www.w3.org/2000/svg">
<path d="M23.4403 0.875H4.69031C3.69575 0.875 2.74192 1.27009 2.03866 1.97335C1.3354 2.67661 0.940308 3.63044 0.940308 4.625V23.375C0.940308 24.3696 1.3354 25.3234 2.03866 26.0266C2.74192 26.7299 3.69575 27.125 4.69031 27.125H23.4403C24.4349 27.125 25.3887 26.7299 26.092 26.0266C26.7952 25.3234 27.1903 24.3696 27.1903 23.375V4.625C27.1903 3.63044 26.7952 2.67661 26.092 1.97335C25.3887 1.27009 24.4349 0.875 23.4403 0.875ZM22.7091 18.3687C22.6082 18.7537 22.4078 19.1053 22.128 19.3884C21.8483 19.6714 21.499 19.8759 21.1153 19.9812C18.776 20.2593 16.421 20.3846 14.0653 20.3563C11.7097 20.3846 9.35466 20.2593 7.01531 19.9812C6.63157 19.8759 6.28231 19.6714 6.00257 19.3884C5.72283 19.1053 5.52246 18.7537 5.42156 18.3687C5.16288 16.9271 5.03736 15.4647 5.04656 14C5.03736 12.5353 5.16288 11.0729 5.42156 9.63125C5.52246 9.24631 5.72283 8.89468 6.00257 8.61165C6.28231 8.32862 6.63157 8.12414 7.01531 8.01875C9.35466 7.74071 11.7097 7.61545 14.0653 7.64375C16.421 7.61545 18.776 7.74071 21.1153 8.01875C21.499 8.12414 21.8483 8.32862 22.128 8.61165C22.4078 8.89468 22.6082 9.24631 22.7091 9.63125C22.9677 11.0729 23.0933 12.5353 23.0841 14C23.0933 15.4647 22.9677 16.9271 22.7091 18.3687Z" fill="#59575C"/>
<path d="M12.2177 16.6809L16.9333 13.9996L12.2177 11.3184V16.6809Z" fill="#59575C"/>
</svg>
