<svg width="179" height="37" viewBox="0 0 179 37" fill="none" xmlns="http://www.w3.org/2000/svg">
<path d="M43.4883 15.716C43.4343 14.9864 43.1258 14.4113 42.5627 13.991C41.9997 13.5627 41.2669 13.3486 40.3645 13.3486C39.5778 13.3486 38.9608 13.5271 38.5134 13.8839C38.0738 14.2409 37.8539 14.7365 37.8539 15.371C37.8539 15.8231 38.0853 16.176 38.5481 16.4298C39.0031 16.6756 39.9712 16.9691 41.4521 17.3101C43.6117 17.8018 45.054 18.3728 45.7791 19.0231C46.5041 19.6655 46.8666 20.6966 46.8666 22.1162C46.8666 23.5438 46.319 24.6779 45.2237 25.5185C44.1285 26.3592 42.6476 26.7795 40.781 26.7795C38.9068 26.7795 37.4413 26.3354 36.3846 25.4471C35.3357 24.5509 34.7764 23.2821 34.707 21.6403H37.6804C37.7112 22.4493 37.9966 23.0719 38.5365 23.5081C39.0764 23.9443 39.8246 24.1623 40.781 24.1623C41.7683 24.1623 42.5396 23.9998 43.0949 23.6746C43.6503 23.3415 43.9279 22.8855 43.9279 22.3065C43.9279 21.7355 43.7274 21.3152 43.3263 21.0455C42.9407 20.7759 42.1077 20.4944 40.8273 20.2009C38.4825 19.6616 36.913 19.0787 36.1185 18.4522C35.3318 17.8335 34.9384 16.866 34.9384 15.5494C34.9384 14.0743 35.459 12.9045 36.5003 12.04C37.5415 11.1677 38.9492 10.7314 40.7232 10.7314C42.3815 10.7314 43.7274 11.1835 44.761 12.0876C45.8022 12.9838 46.3807 14.1933 46.4964 15.716H43.4883ZM51.6101 26.6487C50.592 26.6487 49.7744 26.3513 49.1573 25.7565C48.5403 25.1617 48.2318 24.3765 48.2318 23.401C48.2318 22.3779 48.5095 21.5571 49.0648 20.9385C49.6278 20.3198 50.4416 19.9312 51.506 19.7726L53.4149 19.499C53.9086 19.4277 54.3212 19.3127 54.6529 19.1541C54.7917 19.0826 54.8997 18.9597 54.9768 18.7853C55.054 18.6028 55.081 18.4165 55.0578 18.2261C55.0192 17.9089 54.8612 17.663 54.5835 17.4886C54.2595 17.2744 53.789 17.1674 53.172 17.1674C52.6167 17.1674 52.1847 17.3061 51.8762 17.5837C51.5677 17.8533 51.4057 18.242 51.3902 18.7495H48.6136C48.6753 17.433 49.1111 16.4456 49.9209 15.7874C50.7385 15.1291 51.9302 14.7999 53.4959 14.7999C54.8612 14.7999 55.9371 15.0974 56.7238 15.6922C57.5105 16.2791 57.9039 17.0841 57.9039 18.1071V24.4003C57.9039 24.8999 57.9425 25.2529 58.0196 25.459C58.1045 25.6652 58.2703 25.8239 58.5171 25.9349V25.9468V26.3513H56.9552H55.3934C55.2622 25.8992 55.1774 25.4551 55.1388 25.0189L55.1273 24.9951C54.2248 26.0975 53.0524 26.6487 51.6101 26.6487ZM55.081 22.1995V20.9147C54.7416 21.105 54.2981 21.2597 53.7504 21.3786L52.686 21.5809C52.1847 21.6761 51.8029 21.8545 51.5407 22.1162C51.2784 22.37 51.1473 22.6952 51.1473 23.0917C51.1473 23.5438 51.263 23.8967 51.4944 24.1505C51.7335 24.4043 52.0613 24.5311 52.4778 24.5311C53.4111 24.5311 54.1515 24.1981 54.6991 23.5318C54.8071 23.397 54.8959 23.2027 54.9652 22.9489C55.0424 22.6952 55.081 22.4453 55.081 22.1995ZM60.5417 26.3632V11.1478H61.9764H63.4226V26.3632H61.988H60.5417ZM70.5379 26.6487C68.8718 26.6487 67.5876 26.1213 66.6852 25.0665C65.7828 24.0116 65.3315 22.5087 65.3315 20.5578C65.3315 18.7575 65.7905 17.3498 66.7083 16.3346C67.6261 15.3115 68.9026 14.7999 70.5379 14.7999C72.2038 14.7999 73.488 15.3194 74.3908 16.3584C75.293 17.3973 75.7441 18.8764 75.7441 20.7957C75.7595 21.0178 75.744 21.2399 75.6978 21.4619H68.2355C68.3049 22.3581 68.4978 23.0243 68.814 23.4605C69.215 24.0156 69.886 24.2932 70.8271 24.2932C71.259 24.2932 71.66 24.1663 72.0303 23.9125C72.4082 23.6588 72.6358 23.3494 72.7129 22.9846H75.6516C75.3971 24.1346 74.8184 25.0347 73.9163 25.6851C73.0137 26.3275 71.8876 26.6487 70.5379 26.6487ZM72.736 19.5704C72.6743 18.8963 72.5008 18.3689 72.2154 17.9882C71.8452 17.4886 71.2706 17.2387 70.4916 17.2387C69.7511 17.2387 69.1842 17.5321 68.7909 18.119C68.5518 18.4918 68.3782 18.9755 68.2702 19.5704H72.736ZM83.8773 18.4759C83.8773 18.0397 83.6998 17.6907 83.3455 17.429C82.9979 17.1674 82.5351 17.0365 81.9571 17.0365C81.4019 17.0365 80.9655 17.1356 80.6494 17.3339C80.3413 17.5321 80.1866 17.8058 80.1866 18.1547C80.1866 18.4006 80.3641 18.6147 80.719 18.7971C81.074 18.9716 81.6945 19.162 82.582 19.3682C84.3555 19.7726 85.5393 20.2168 86.1334 20.7005C86.7348 21.1843 87.0363 21.9457 87.0363 22.9846C87.0363 24.087 86.5999 24.9752 85.7285 25.6494C84.8572 26.3156 83.7115 26.6487 82.2923 26.6487C80.6112 26.6487 79.3152 26.3195 78.405 25.6613C77.4948 24.9951 77.0093 24.0276 76.9476 22.7586H79.8858C79.9093 23.2741 80.133 23.6786 80.557 23.972C80.9809 24.2655 81.5596 24.4122 82.2923 24.4122C82.871 24.4122 83.3221 24.3131 83.6462 24.1147C83.9697 23.9085 84.1318 23.6231 84.1318 23.2582C84.1318 23.0045 83.9741 22.7863 83.658 22.6039C83.3411 22.4295 82.7903 22.255 82.0033 22.0805C80.1521 21.6522 78.914 21.2002 78.2891 20.7243C77.665 20.2564 77.3525 19.5268 77.3525 18.5354C77.3525 17.4171 77.7574 16.517 78.5671 15.835C79.3768 15.145 80.4411 14.7999 81.7605 14.7999C83.2487 14.7999 84.4479 15.1371 85.3581 15.8111C86.2764 16.4853 86.7348 17.3735 86.7348 18.4759H83.8773ZM92.4968 17.1793V26.3632H91.0622H89.6158V17.1793H88.0081V15.0974H89.6158V14.1575C89.6158 13.079 89.8938 12.274 90.449 11.7426C91.0123 11.2112 91.8646 10.9456 93.0058 10.9456C93.5148 10.9376 93.9659 10.9615 94.3598 11.017V13.3843H93.4451C93.0674 13.3843 92.8129 13.4636 92.6816 13.6222C92.5584 13.7808 92.4968 14.106 92.4968 14.5978V15.0974H94.3598V17.1793H92.4968ZM100.989 26.6487C99.2768 26.6487 97.9155 26.1213 96.9048 25.0665C95.8941 24.0116 95.3888 22.5881 95.3888 20.7957C95.3888 18.9637 95.8941 17.5084 96.9048 16.4298C97.9155 15.3432 99.2768 14.7999 100.989 14.7999C102.709 14.7999 104.07 15.3432 105.073 16.4298C106.083 17.5084 106.589 18.9637 106.589 20.7957C106.589 22.5881 106.083 24.0116 105.073 25.0665C104.07 26.1213 102.709 26.6487 100.989 26.6487ZM100.989 24.1742C101.845 24.1742 102.497 23.8848 102.944 23.3058C103.399 22.7189 103.627 21.8703 103.627 20.7601C103.627 19.6259 103.399 18.7654 102.944 18.1785C102.497 17.5837 101.845 17.2863 100.989 17.2863C100.125 17.2863 99.469 17.5837 99.0223 18.1785C98.5822 18.7654 98.3622 19.6259 98.3622 20.7601C98.3622 21.8703 98.5822 22.7189 99.0223 23.3058C99.469 23.8848 100.125 24.1742 100.989 24.1742ZM108.59 26.3632V15.0974H109.955H111.332V17.1198C111.44 16.8977 111.556 16.6836 111.679 16.4774C112.358 15.3591 113.233 14.7999 114.305 14.7999L114.965 14.8119V17.8454C114.71 17.8217 114.421 17.8098 114.097 17.8098C113.218 17.8098 112.563 18.0358 112.131 18.4878C111.699 18.932 111.482 19.6061 111.482 20.5102V26.3632H110.036H108.59ZM126.106 22.1875C125.952 23.5913 125.443 24.6858 124.579 25.471C123.715 26.2561 122.589 26.6487 121.2 26.6487C119.543 26.6487 118.262 26.1451 117.359 25.1378C116.457 24.1227 116.006 22.6753 116.006 20.7957C116.006 18.9637 116.473 17.5084 117.406 16.4298C118.347 15.3432 119.612 14.7999 121.2 14.7999C122.612 14.7999 123.765 15.2005 124.66 16.0015C125.562 16.8025 126.045 17.8533 126.106 19.1541H123.156C123.133 18.5988 122.94 18.1508 122.578 17.8098C122.223 17.4608 121.764 17.2863 121.2 17.2863C120.476 17.2863 119.924 17.5877 119.546 18.1905C119.169 18.7853 118.98 19.6537 118.98 20.7957C118.98 21.9139 119.169 22.7665 119.546 23.3534C119.924 23.9324 120.476 24.2218 121.2 24.2218C121.726 24.2218 122.169 24.0355 122.532 23.6627C122.894 23.29 123.102 22.7983 123.156 22.1875H126.106ZM132.458 26.6487C130.792 26.6487 129.507 26.1213 128.605 25.0665C127.703 24.0116 127.251 22.5087 127.251 20.5578C127.251 18.7575 127.711 17.3498 128.628 16.3346C129.546 15.3115 130.823 14.7999 132.458 14.7999C134.124 14.7999 135.408 15.3194 136.31 16.3584C137.213 17.3973 137.664 18.8764 137.664 20.7957C137.68 21.0178 137.664 21.2399 137.618 21.4619H130.156C130.225 22.3581 130.418 23.0243 130.734 23.4605C131.135 24.0156 131.806 24.2932 132.747 24.2932C133.179 24.2932 133.58 24.1663 133.951 23.9125C134.328 23.6588 134.556 23.3494 134.633 22.9846H137.572C137.317 24.1346 136.739 25.0347 135.836 25.6851C134.934 26.3275 133.808 26.6487 132.458 26.6487ZM134.656 19.5704C134.595 18.8963 134.421 18.3689 134.136 17.9882C133.765 17.4886 133.191 17.2387 132.412 17.2387C131.671 17.2387 131.104 17.5321 130.711 18.119C130.472 18.4918 130.298 18.9755 130.19 19.5704H134.656Z" fill="#032D60"/>
<path d="M139.637 26.3628V11.1475H141.176H142.725V16.8458H148.51V11.1475H150.061H151.611V26.3628H150.061H148.51V19.4749H142.725V26.3628H141.187H139.637ZM157.326 15.097V22.1515C157.326 22.8415 157.469 23.353 157.754 23.6862C158.047 24.0113 158.491 24.1739 159.085 24.1739C159.84 24.1739 160.419 23.9399 160.82 23.472C161.221 23.0041 161.422 22.3299 161.422 21.4497V15.097H162.868H164.314V26.3628H162.949H161.561V24.6735C161.461 24.8797 161.341 25.0741 161.202 25.2565C160.492 26.1843 159.463 26.6483 158.113 26.6483C156.956 26.6483 156.054 26.2994 155.406 25.6014C154.758 24.9035 154.434 23.932 154.434 22.6869V15.097H155.88H157.326ZM166.929 11.1475H168.364H169.809V16.5722L169.879 16.4889C170.658 15.3627 171.684 14.7996 172.957 14.7996C174.345 14.7996 175.459 15.3271 176.3 16.3818C177.148 17.4366 177.573 18.8285 177.573 20.5574C177.573 22.3815 177.148 23.8527 176.3 24.971C175.459 26.0892 174.345 26.6483 172.957 26.6483C171.684 26.6483 170.658 26.1249 169.879 25.0781L169.752 24.9115V26.3628H166.929V11.1475ZM172.135 24.2096C172.907 24.2096 173.512 23.9122 173.952 23.3174C174.391 22.7226 174.611 21.8938 174.611 20.831C174.611 19.7445 174.391 18.8959 173.952 18.2852C173.512 17.6745 172.907 17.3692 172.135 17.3692C171.364 17.3692 170.759 17.6825 170.319 18.309C169.887 18.9356 169.671 19.8079 169.671 20.9262C169.671 21.9572 169.891 22.7622 170.33 23.3411C170.755 23.9201 171.356 24.2096 172.135 24.2096Z" fill="#032D60"/>
<path d="M16.4696 1.11679C16.627 1.27841 16.7517 1.4703 16.8368 1.68151C16.922 1.89272 16.9657 2.11911 16.9657 2.34774C16.9657 2.57636 16.922 2.80275 16.8368 3.01396C16.7517 3.22517 16.627 3.41706 16.4696 3.57867L5.20019 15.1644C5.04433 15.3245 4.92068 15.5145 4.83632 15.7238C4.75196 15.933 4.70854 16.1573 4.70854 16.3838C4.70854 16.6103 4.75196 16.8346 4.83632 17.0438C4.92068 17.2531 5.04433 17.4431 5.20019 17.6033L9.44149 21.9643C9.655 22.1844 9.9087 22.359 10.1879 22.4782C10.4672 22.5973 10.7665 22.6587 11.0689 22.6587C11.3712 22.6587 11.6705 22.5973 11.9498 22.4782C12.229 22.359 12.4827 22.1844 12.6962 21.9643L19.4233 15.0389C19.7619 14.6891 20.2217 14.4919 20.7016 14.4907C21.1815 14.4896 21.6422 14.6845 21.9823 15.0326C22.3225 15.3806 22.5142 15.8534 22.5154 16.347C22.5165 16.8404 22.327 17.3141 21.9884 17.6639L15.6275 24.1941C15.0965 24.7428 14.7983 25.4854 14.7983 26.2596C14.7983 27.0337 15.0965 27.7763 15.6275 28.3251L17.145 29.8896C17.447 30.2083 17.6146 30.6365 17.6118 31.0814C17.609 31.5264 17.4358 31.9523 17.1298 32.2668C16.8238 32.5815 16.4096 32.7595 15.977 32.7625C15.5442 32.7653 15.1279 32.5929 14.8179 32.2825L0.509316 17.5677C0.195663 17.2442 0.0195312 16.806 0.0195312 16.3493C0.0195312 15.8925 0.195663 15.4543 0.509316 15.1309L14.0734 1.11679C14.2308 0.954699 14.4177 0.826106 14.6235 0.738369C14.8292 0.65063 15.0498 0.605469 15.2725 0.605469C15.4953 0.605469 15.7159 0.65063 15.9216 0.738369C16.1274 0.826106 16.3143 0.954699 16.4717 1.11679" fill="#032D60"/>
<path d="M12.3442 17.3645L18.9391 10.575C19.3491 10.1542 19.9048 9.91775 20.4841 9.91775C21.0634 9.91775 21.6191 10.1542 22.0291 10.575L26.6691 15.3294C26.9961 15.6659 27.1799 16.1222 27.1799 16.5979C27.1799 17.0737 26.9961 17.53 26.6691 17.8665L19.108 25.6329C18.8405 25.9197 18.6932 26.3029 18.6974 26.7001C18.7015 27.0974 18.857 27.4772 19.1303 27.758C19.4037 28.0388 19.7732 28.1982 20.1596 28.2021C20.546 28.2061 20.9184 28.0541 21.1971 27.7789L30.7212 17.9858C31.0483 17.6492 31.2321 17.193 31.2321 16.7172C31.2321 16.2414 31.0483 15.7851 30.7212 15.4486L21.8277 6.30177C21.4177 5.88091 20.8621 5.64453 20.2827 5.64453C19.7034 5.64453 19.1477 5.88091 18.7377 6.30177L10.1615 15.1202C9.88481 15.4205 9.73306 15.8199 9.73842 16.2335C9.74385 16.6472 9.90601 17.0423 10.1905 17.3348C10.4749 17.6273 10.8592 17.794 11.2615 17.7996C11.6637 17.8052 12.0522 17.6491 12.3442 17.3645Z" fill="#032D60"/>
</svg>
